<svg width="20" height="20" viewBox="0 0 20 20" fill="none" xmlns="http://www.w3.org/2000/svg">
<path d="M18.3337 10H1.66699" stroke="white" stroke-opacity="0.6" stroke-width="1.66667" stroke-linecap="round" stroke-linejoin="round"/>
<path d="M4.54199 4.25837L1.66699 10V15C1.66699 15.4421 1.84259 15.866 2.15515 16.1786C2.46771 16.4911 2.89163 16.6667 3.33366 16.6667H16.667C17.109 16.6667 17.5329 16.4911 17.8455 16.1786C18.1581 15.866 18.3337 15.4421 18.3337 15V10L15.4587 4.25837C15.3207 3.9807 15.108 3.74702 14.8445 3.58361C14.5809 3.4202 14.2771 3.33354 13.967 3.33337H6.03366C5.72359 3.33354 5.41971 3.4202 5.1562 3.58361C4.89268 3.74702 4.67997 3.9807 4.54199 4.25837Z" stroke="white" stroke-opacity="0.6" stroke-width="1.66667" stroke-linecap="round" stroke-linejoin="round"/>
<path d="M5 13.3334H5.00833" stroke="white" stroke-opacity="0.6" stroke-width="1.66667" stroke-linecap="round" stroke-linejoin="round"/>
<path d="M8.33301 13.3334H8.34134" stroke="white" stroke-opacity="0.6" stroke-width="1.66667" stroke-linecap="round" stroke-linejoin="round"/>
</svg>
