<svg width="18" height="18" viewBox="0 0 18 18" fill="none" xmlns="http://www.w3.org/2000/svg">
<path d="M6.75 2.25H3C2.58579 2.25 2.25 2.58579 2.25 3V8.25C2.25 8.66421 2.58579 9 3 9H6.75C7.16421 9 7.5 8.66421 7.5 8.25V3C7.5 2.58579 7.16421 2.25 6.75 2.25Z" stroke="#51A2FF" stroke-width="1.5" stroke-linecap="round" stroke-linejoin="round"/>
<path d="M15 2.25H11.25C10.8358 2.25 10.5 2.58579 10.5 3V5.25C10.5 5.66421 10.8358 6 11.25 6H15C15.4142 6 15.75 5.66421 15.75 5.25V3C15.75 2.58579 15.4142 2.25 15 2.25Z" stroke="#51A2FF" stroke-width="1.5" stroke-linecap="round" stroke-linejoin="round"/>
<path d="M15 9H11.25C10.8358 9 10.5 9.33579 10.5 9.75V15C10.5 15.4142 10.8358 15.75 11.25 15.75H15C15.4142 15.75 15.75 15.4142 15.75 15V9.75C15.75 9.33579 15.4142 9 15 9Z" stroke="#51A2FF" stroke-width="1.5" stroke-linecap="round" stroke-linejoin="round"/>
<path d="M6.5 12.3375H2.75C2.33579 12.3375 2 12.6733 2 13.0875V15.3375C2 15.7517 2.33579 16.0875 2.75 16.0875H6.5C6.91421 16.0875 7.25 15.7517 7.25 15.3375V13.0875C7.25 12.6733 6.91421 12.3375 6.5 12.3375Z" stroke="#51A2FF" stroke-width="1.5" stroke-linecap="round" stroke-linejoin="round"/>
</svg>
